<mxfile host="app.diagrams.net" agent="Mozilla/5.0 (Windows NT 10.0; Win64; x64) AppleWebKit/537.36 (KHTML, like Gecko) Chrome/133.0.0.0 Safari/537.36 Edg/133.0.0.0" version="26.0.16">
  <diagram name="Page-1" id="VkQJBXz2Djhly3g92RTE">
    <mxGraphModel dx="1953" dy="802" grid="1" gridSize="10" guides="1" tooltips="1" connect="1" arrows="1" fold="1" page="1" pageScale="1" pageWidth="827" pageHeight="1169" math="0" shadow="0">
      <root>
        <mxCell id="0" />
        <mxCell id="1" parent="0" />
        <mxCell id="6oZYbPfHyP9pOPqMmx4x-1" value="" style="rounded=1;whiteSpace=wrap;html=1;" vertex="1" parent="1">
          <mxGeometry x="59" y="120" width="710" height="160" as="geometry" />
        </mxCell>
        <mxCell id="6oZYbPfHyP9pOPqMmx4x-2" value="UI" style="rounded=0;whiteSpace=wrap;html=1;" vertex="1" parent="1">
          <mxGeometry x="354" y="120" width="120" height="40" as="geometry" />
        </mxCell>
        <mxCell id="6oZYbPfHyP9pOPqMmx4x-3" value="上传数据集" style="rounded=1;whiteSpace=wrap;html=1;" vertex="1" parent="1">
          <mxGeometry x="100" y="180" width="120" height="60" as="geometry" />
        </mxCell>
        <mxCell id="6oZYbPfHyP9pOPqMmx4x-6" value="" style="endArrow=classic;html=1;rounded=0;exitX=0.5;exitY=1;exitDx=0;exitDy=0;entryX=0.5;entryY=0;entryDx=0;entryDy=0;" edge="1" parent="1" source="6oZYbPfHyP9pOPqMmx4x-3" target="6oZYbPfHyP9pOPqMmx4x-9">
          <mxGeometry width="50" height="50" relative="1" as="geometry">
            <mxPoint x="380" y="440" as="sourcePoint" />
            <mxPoint x="160" y="300" as="targetPoint" />
          </mxGeometry>
        </mxCell>
        <mxCell id="6oZYbPfHyP9pOPqMmx4x-27" value="" style="edgeStyle=orthogonalEdgeStyle;rounded=0;orthogonalLoop=1;jettySize=auto;html=1;" edge="1" parent="1" source="6oZYbPfHyP9pOPqMmx4x-8" target="6oZYbPfHyP9pOPqMmx4x-26">
          <mxGeometry relative="1" as="geometry" />
        </mxCell>
        <mxCell id="6oZYbPfHyP9pOPqMmx4x-8" value="生成测试数据集" style="rounded=1;whiteSpace=wrap;html=1;" vertex="1" parent="1">
          <mxGeometry x="100" y="390" width="120" height="60" as="geometry" />
        </mxCell>
        <mxCell id="6oZYbPfHyP9pOPqMmx4x-9" value="存入私有数据集" style="rounded=1;whiteSpace=wrap;html=1;" vertex="1" parent="1">
          <mxGeometry x="100" y="300" width="120" height="60" as="geometry" />
        </mxCell>
        <mxCell id="6oZYbPfHyP9pOPqMmx4x-11" value="" style="edgeStyle=orthogonalEdgeStyle;rounded=0;orthogonalLoop=1;jettySize=auto;html=1;" edge="1" parent="1" source="6oZYbPfHyP9pOPqMmx4x-10" target="6oZYbPfHyP9pOPqMmx4x-8">
          <mxGeometry relative="1" as="geometry" />
        </mxCell>
        <mxCell id="6oZYbPfHyP9pOPqMmx4x-10" value="公有数据集" style="rounded=1;whiteSpace=wrap;html=1;" vertex="1" parent="1">
          <mxGeometry x="-50" y="390" width="120" height="60" as="geometry" />
        </mxCell>
        <mxCell id="6oZYbPfHyP9pOPqMmx4x-14" value="上传模型权重，结构" style="rounded=1;whiteSpace=wrap;html=1;" vertex="1" parent="1">
          <mxGeometry x="234" y="180" width="120" height="60" as="geometry" />
        </mxCell>
        <mxCell id="6oZYbPfHyP9pOPqMmx4x-16" value="" style="edgeStyle=orthogonalEdgeStyle;rounded=0;orthogonalLoop=1;jettySize=auto;html=1;" edge="1" parent="1" source="6oZYbPfHyP9pOPqMmx4x-15" target="6oZYbPfHyP9pOPqMmx4x-10">
          <mxGeometry relative="1" as="geometry" />
        </mxCell>
        <mxCell id="6oZYbPfHyP9pOPqMmx4x-15" value="公有数据库" style="rounded=1;whiteSpace=wrap;html=1;" vertex="1" parent="1">
          <mxGeometry x="-50" y="480" width="120" height="60" as="geometry" />
        </mxCell>
        <mxCell id="6oZYbPfHyP9pOPqMmx4x-17" value="提供访问大模型的端口" style="rounded=1;whiteSpace=wrap;html=1;" vertex="1" parent="1">
          <mxGeometry x="380" y="180" width="120" height="60" as="geometry" />
        </mxCell>
        <mxCell id="6oZYbPfHyP9pOPqMmx4x-33" value="" style="edgeStyle=orthogonalEdgeStyle;rounded=0;orthogonalLoop=1;jettySize=auto;html=1;" edge="1" parent="1" source="6oZYbPfHyP9pOPqMmx4x-18" target="6oZYbPfHyP9pOPqMmx4x-31">
          <mxGeometry relative="1" as="geometry" />
        </mxCell>
        <mxCell id="6oZYbPfHyP9pOPqMmx4x-18" value="生成推断器" style="rounded=1;whiteSpace=wrap;html=1;" vertex="1" parent="1">
          <mxGeometry x="300" y="305" width="120" height="50" as="geometry" />
        </mxCell>
        <mxCell id="6oZYbPfHyP9pOPqMmx4x-22" value="" style="endArrow=classic;html=1;rounded=0;entryX=0.75;entryY=0;entryDx=0;entryDy=0;" edge="1" parent="1" source="6oZYbPfHyP9pOPqMmx4x-17" target="6oZYbPfHyP9pOPqMmx4x-18">
          <mxGeometry width="50" height="50" relative="1" as="geometry">
            <mxPoint x="370" y="440" as="sourcePoint" />
            <mxPoint x="420" y="390" as="targetPoint" />
          </mxGeometry>
        </mxCell>
        <mxCell id="6oZYbPfHyP9pOPqMmx4x-23" value="" style="endArrow=classic;html=1;rounded=0;exitX=0.5;exitY=1;exitDx=0;exitDy=0;entryX=0.25;entryY=0;entryDx=0;entryDy=0;" edge="1" parent="1" source="6oZYbPfHyP9pOPqMmx4x-14" target="6oZYbPfHyP9pOPqMmx4x-18">
          <mxGeometry width="50" height="50" relative="1" as="geometry">
            <mxPoint x="370" y="440" as="sourcePoint" />
            <mxPoint x="420" y="390" as="targetPoint" />
          </mxGeometry>
        </mxCell>
        <mxCell id="6oZYbPfHyP9pOPqMmx4x-29" value="" style="edgeStyle=orthogonalEdgeStyle;rounded=0;orthogonalLoop=1;jettySize=auto;html=1;" edge="1" parent="1" source="6oZYbPfHyP9pOPqMmx4x-24" target="6oZYbPfHyP9pOPqMmx4x-26">
          <mxGeometry relative="1" as="geometry" />
        </mxCell>
        <mxCell id="6oZYbPfHyP9pOPqMmx4x-24" value="使用公有模型" style="rounded=1;whiteSpace=wrap;html=1;" vertex="1" parent="1">
          <mxGeometry x="300" y="480" width="120" height="60" as="geometry" />
        </mxCell>
        <mxCell id="6oZYbPfHyP9pOPqMmx4x-25" value="" style="endArrow=classic;html=1;rounded=0;exitX=1;exitY=0.5;exitDx=0;exitDy=0;entryX=0;entryY=0.5;entryDx=0;entryDy=0;" edge="1" parent="1" source="6oZYbPfHyP9pOPqMmx4x-15" target="6oZYbPfHyP9pOPqMmx4x-24">
          <mxGeometry width="50" height="50" relative="1" as="geometry">
            <mxPoint x="370" y="380" as="sourcePoint" />
            <mxPoint x="420" y="330" as="targetPoint" />
          </mxGeometry>
        </mxCell>
        <mxCell id="6oZYbPfHyP9pOPqMmx4x-26" value="推断器集合" style="rounded=1;whiteSpace=wrap;html=1;" vertex="1" parent="1">
          <mxGeometry x="300" y="390" width="120" height="60" as="geometry" />
        </mxCell>
        <mxCell id="6oZYbPfHyP9pOPqMmx4x-32" value="" style="edgeStyle=orthogonalEdgeStyle;rounded=0;orthogonalLoop=1;jettySize=auto;html=1;" edge="1" parent="1" source="6oZYbPfHyP9pOPqMmx4x-30" target="6oZYbPfHyP9pOPqMmx4x-31">
          <mxGeometry relative="1" as="geometry" />
        </mxCell>
        <mxCell id="6oZYbPfHyP9pOPqMmx4x-30" value="自定任务切割方式" style="rounded=1;whiteSpace=wrap;html=1;" vertex="1" parent="1">
          <mxGeometry x="520" y="180" width="120" height="60" as="geometry" />
        </mxCell>
        <mxCell id="6oZYbPfHyP9pOPqMmx4x-31" value="分配工作进程" style="rounded=1;whiteSpace=wrap;html=1;" vertex="1" parent="1">
          <mxGeometry x="520" y="305" width="120" height="50" as="geometry" />
        </mxCell>
        <mxCell id="6oZYbPfHyP9pOPqMmx4x-35" value="" style="endArrow=classic;html=1;rounded=0;" edge="1" parent="1" source="6oZYbPfHyP9pOPqMmx4x-26">
          <mxGeometry width="50" height="50" relative="1" as="geometry">
            <mxPoint x="370" y="440" as="sourcePoint" />
            <mxPoint x="420" y="390" as="targetPoint" />
          </mxGeometry>
        </mxCell>
        <mxCell id="6oZYbPfHyP9pOPqMmx4x-36" value="" style="endArrow=classic;html=1;rounded=0;exitX=0.5;exitY=1;exitDx=0;exitDy=0;entryX=0.5;entryY=0;entryDx=0;entryDy=0;" edge="1" parent="1" source="6oZYbPfHyP9pOPqMmx4x-9" target="6oZYbPfHyP9pOPqMmx4x-8">
          <mxGeometry width="50" height="50" relative="1" as="geometry">
            <mxPoint x="570" y="515" as="sourcePoint" />
            <mxPoint x="620" y="465" as="targetPoint" />
            <Array as="points" />
          </mxGeometry>
        </mxCell>
        <mxCell id="6oZYbPfHyP9pOPqMmx4x-37" value="" style="endArrow=classic;html=1;rounded=0;exitX=0.5;exitY=1;exitDx=0;exitDy=0;entryX=0.5;entryY=0;entryDx=0;entryDy=0;" edge="1" parent="1" source="6oZYbPfHyP9pOPqMmx4x-31" target="6oZYbPfHyP9pOPqMmx4x-26">
          <mxGeometry width="50" height="50" relative="1" as="geometry">
            <mxPoint x="370" y="440" as="sourcePoint" />
            <mxPoint x="420" y="390" as="targetPoint" />
            <Array as="points">
              <mxPoint x="580" y="370" />
              <mxPoint x="360" y="370" />
            </Array>
          </mxGeometry>
        </mxCell>
      </root>
    </mxGraphModel>
  </diagram>
</mxfile>
